
<svg width="48" height="48" viewBox="0 0 48 48" fill="none" xmlns="http://www.w3.org/2000/svg">
  <!-- Pin background -->
  <path d="M24 2C14.058 2 6 10.058 6 20C6 30.762 18.042 41.072 22.807 45.022a2 2 0 0 0 2.386 0C29.958 41.072 42 30.762 42 20C42 10.058 33.942 2 24 2Z" fill="#f00"/>
  <!-- Inner white circle -->
  <circle cx="24" cy="20" r="10" fill="white"/>
  <!-- Hanger icon -->
  <path d="M24 14c-1.104 0-2 .896-2 2v.586l-6.707 6.707a1 1 0 0 0 1.414 1.414L23 18.414V20c0 1.658 1.343 3 3 3h6a1 1 0 1 0 0-2h-6c-.552 0-1-.448-1-1v-1.586l4.293 4.293a1 1 0 1 0 1.414-1.414L26 16.586V16c0-1.104-.896-2-2-2Z" fill="#f00"/>
</svg>
